<svg id="dialMap" data-name="Domestic Food court" xmlns="http://www.w3.org/2000/svg"
    xmlns:xlink="http://www.w3.org/1999/xlink" viewBox="0 0 945.65 521.76">
    <defs>
        <style>
            .cls-1,
            .cls-37,
            .cls-39 {
                fill: #fff;
                stroke: #231f20;
            }
            .cls-1 {
                stroke-width: 0.5px;
            }

            .cls-2,
            .cls-3 {
                fill: #231f20;
            }

            .cls-3 {
                fill-rule: evenodd;
            }

            .cls-500 {
                fill: #ffefc2;
            }

            .cls-501,
            .cls-502,
            .cls-500,
            .cls-504,
            .cls-503 {
                stroke: #4a4a49;
            }

            .cls-501,
            .cls-502,
            .cls-35,
            .cls-36,
            .cls-500,
            .cls-504,
            .cls-503 {
                stroke-width: 0.05px;
            }

            .cls-504 {
                fill: #817369;
            }

            .cls-503 {
                fill: #3ec2cf;
            }

            .cls-7 {
                font-size: 11.2px;
            }

            .cls-12,
            .cls-18,
            .cls-31,
            .cls-7 {
                font-family: Amplitude-Regular;
            }

            .cls-8 {
                letter-spacing: -0.02em;
            }

            .cls-9 {
                letter-spacing: 0em;
            }

            .cls-10 {
                letter-spacing: -0.01em;
            }

            .cls-11,
            .cls-501 {
                fill: #faa71b;
            }

            .cls-11 {
                stroke: #000;
            }

            .cls-11,
            .cls-39 {
                stroke-miterlimit: 10;
            }

            .cls-11,
            .cls-37,
            .cls-39 {
                stroke-width: 0.1px;
            }

            .cls-12 {
                font-size: 12.55px;
            }

            .cls-13 {
                letter-spacing: -0.01em;
            }

            .cls-14 {
                letter-spacing: -0.02em;
            }

            .cls-15 {
                letter-spacing: -0.01em;
            }

            .cls-16 {
                letter-spacing: 0em;
            }

            .cls-18 {
                font-size: 12.08px;
            }

            .cls-19 {
                letter-spacing: -0.03em;
            }

            .cls-20 {
                letter-spacing: 0em;
            }

            .cls-21 {
                letter-spacing: 0.02em;
            }

            .cls-22 {
                font-size: 13.42px;
            }

            .cls-23 {
                letter-spacing: -0.01em;
            }

            .cls-24 {
                letter-spacing: -0.01em;
            }

            .cls-25 {
                letter-spacing: 0em;
            }

            .cls-26 {
                letter-spacing: 0em;
            }

            .cls-27 {
                letter-spacing: 0.01em;
            }

            .cls-28 {
                letter-spacing: -0.02em;
            }

            .cls-29 {
                letter-spacing: 0em;
            }

            .cls-30 {
                letter-spacing: -0.01em;
            }

            .cls-31 {
                font-size: 12.28px;
            }

            .cls-32 {
                letter-spacing: -0.04em;
            }

            .cls-502 {
                fill: #4d90cd;
            }

            .cls-34 {
                fill: #a8b2b8;
            }

            .cls-35 {
                fill: #e6e7e8;
                stroke: #e6e7e8;
            }

            .cls-36 {
                fill: none;
                stroke: #414042;
            }

            .cls-505 {
                fill: #f8d381;
            }
            .blink {
                -webkit-animation: fadein 200ms linear alternate infinite;
                -moz-animation: fadein 200ms linear alternate infinite;
                animation: fadein 200ms linear alternate infinite;
            }
            @keyframes fadein {
                from {
                    opacity: 0.5;
                }
                to {
                    opacity: 1;
                }
            }
        </style>
        <symbol id="Drinking_fountain" data-name="Drinking fountain" viewBox="0 0 17.51 17.51">
            <g id="Drinking_Fountain-3" data-name="Drinking Fountain">
                <rect class="cls-1" x="0.25" y="0.25" width="17.01" height="17.01" rx="1.7" />
                <path class="cls-2"
                    d="M8,7.47a.49.49,0,0,0-.34-.83H3.55v3.64h2L8,7.47ZM8.65,3.8A1.3,1.3,0,1,0,7.36,5.1,1.29,1.29,0,0,0,8.65,3.8ZM7,6.31a.16.16,0,1,0-.16.16A.16.16,0,0,0,7,6.31Zm-.44,0a.17.17,0,0,0-.17-.16.16.16,0,1,0,0,.32.17.17,0,0,0,.17-.16Zm.4-.44A.16.16,0,1,0,6.75,6a.16.16,0,0,0,.16-.16Zm-.44,0a.17.17,0,0,0-.17-.16A.16.16,0,0,0,6.3,6a.17.17,0,0,0,.17-.16Zm.28-.41a.16.16,0,1,0-.16.16.16.16,0,0,0,.16-.16Zm-.53.08a.16.16,0,1,1-.32,0,.16.16,0,1,1,.32,0Zm.21-.4a.16.16,0,0,1-.17.16.16.16,0,0,1-.16-.16A.17.17,0,0,1,6.26,5a.17.17,0,0,1,.17.17Zm-.61.24a.16.16,0,0,0-.16-.16.16.16,0,0,0-.17.16.17.17,0,0,0,.17.17.17.17,0,0,0,.16-.17ZM6,5a.16.16,0,0,0-.17-.16A.16.16,0,0,0,5.65,5a.16.16,0,0,0,.16.17A.16.16,0,0,0,6,5ZM5.5,5a.18.18,0,0,0-.17-.18A.18.18,0,0,0,5.15,5a.18.18,0,0,0,.18.17A.18.18,0,0,0,5.5,5Zm-.08.6a.18.18,0,0,0-.18-.17.17.17,0,0,0-.17.17.17.17,0,0,0,.17.18.18.18,0,0,0,.18-.18Zm-.33-.36A.18.18,0,0,0,4.91,5a.18.18,0,0,0-.17.18.18.18,0,0,0,.17.17.18.18,0,0,0,.18-.17ZM5.17,6a.2.2,0,1,1-.2-.2.2.2,0,0,1,.2.2Zm-.4-.37a.21.21,0,0,1-.21.21.2.2,0,0,1-.2-.21.2.2,0,0,1,.2-.2.2.2,0,0,1,.21.2Zm3.74,3.8a1.44,1.44,0,0,1-1.58,0L8.57,7.49V5.22A1.26,1.26,0,0,1,9.83,4a1.19,1.19,0,0,1,.56.14l3.1,1.7a1,1,0,0,1,.47.82V8.09h0v5.13c0,1.37-.87,1.78-1.91,1.78V7.85L9.79,6.64v.85a1.26,1.26,0,0,1-.43.94Z" />
            </g>
        </symbol>
        <symbol id="Smoking-area" data-name="Smoking-area" viewBox="0 0 17.51 17.51">
            <g id="Smoking">
                <rect class="cls-1" x="0.25" y="0.25" width="17.01" height="17.01" rx="1.7" />
                <path class="cls-2"
                    d="M14.52,13.27H15V11.58h-.47v1.69Zm-12,0H13.3V11.59H2.52v1.68Zm11.1,0h.53V11.58h-.53v1.69ZM10.29,4.76a1.23,1.23,0,0,0,0,2.46,1.62,1.62,0,0,1,.33,0,.32.32,0,0,1,.32.34.47.47,0,0,1,0,.16.83.83,0,0,0-.26.62.75.75,0,0,0,.7.78h1.93a1,1,0,0,1,.88,1.06v1.05h-.53v-1c0-.33-.15-.61-.35-.61H11.34a1.23,1.23,0,0,1-1.22-1.23,1.21,1.21,0,0,1,.22-.7A1.79,1.79,0,0,1,8.54,6a1.75,1.75,0,0,1,1.75-1.75v.52Zm1.63,3a.34.34,0,0,0-.05.17.43.43,0,0,0,.47.37c1.42,0,2.12.52,2.12,1.93v1.05H15V10.2a2.15,2.15,0,0,0-2.45-2.46,2,2,0,0,0,.35-1A1.93,1.93,0,0,0,11,4.76v.53a1.4,1.4,0,0,1,1.4,1.4A1.37,1.37,0,0,1,11.92,7.73Z" />
            </g>
        </symbol>
        <symbol id="Elevator" data-name="Elevator" viewBox="0 0 17.51 17.51">
            <g id="Elevator-3" data-name="Elevator">
                <rect class="cls-1" x="0.25" y="0.25" width="17.01" height="17.01" rx="1.7" />
                <path class="cls-3"
                    d="M5.38,7.81h6.74a.21.21,0,0,1,.21.21v6.74a.2.2,0,0,1-.21.2H5.38a.2.2,0,0,1-.2-.2V8a.2.2,0,0,1,.2-.21Zm0-.64A.85.85,0,0,0,4.54,8v6.74a.85.85,0,0,0,.84.84h6.74a.85.85,0,0,0,.85-.84V8a.85.85,0,0,0-.85-.85Zm3.37,5.16H8.8v1c0,.29.18.37.4.37V12.33h.52L9.2,10.48h.09l.23.84a.29.29,0,0,0,.4.2l-.36-1.28a.45.45,0,0,0-.44-.34H8.39a.45.45,0,0,0-.44.34l-.37,1.28c.24.06.36,0,.41-.2l.23-.84h.09l-.52,1.85h.52v1.41c.22,0,.4-.08.4-.37v-1Zm-.4-2.9a.41.41,0,1,0,.4-.4.4.4,0,0,0-.4.4Zm2.24,0A.41.41,0,1,0,11,9a.4.4,0,0,0-.41.41ZM11,12.66v-.78H11v1.43c0,.33.22.43.47.43V10.6h.09v.21h0v.53c0,.27.17.35.38.35v-.88h0v-.38a.53.53,0,0,0-.53-.53h-.9a.53.53,0,0,0-.53.53v.38h0v.88c.21,0,.38-.08.38-.35v-.53h0V10.6h.09v3.14c.25,0,.47-.1.47-.43v-.65ZM6.1,9.44a.4.4,0,0,0,.41.4.41.41,0,1,0,0-.81.41.41,0,0,0-.41.41Zm.36,3.22v-.78h.09v1.43c0,.33.21.43.47.43V10.6H7.1v.21h0v.53c0,.27.18.35.38.35v-.88h0v-.38A.52.52,0,0,0,7,9.9h-.9a.53.53,0,0,0-.53.53v.38h0v.88c.21,0,.38-.08.38-.35v-.53h0V10.6H6v3.14c.25,0,.46-.1.46-.43v-.65Zm4.9-10.75V5.19l.6-.6h0l1-1v.74a1.26,1.26,0,0,1-.4.8l-1,1L11,6.72h0l-.57-.56-1-1A1.21,1.21,0,0,1,9,4.32V3.58l1,1h0l.6.6V1.91h.8ZM6.15,6.72V3.44l-.6.6h0l-1,1V4.32a1.26,1.26,0,0,1,.4-.81l1-1,.57-.56h0l.56.56,1,1a1.22,1.22,0,0,1,.4.81v.73l-1-1h0L7,3.44V6.72h-.8Z" />
            </g>
        </symbol>
        <symbol id="Toilets_M_V_Dis" data-name="Toilets M/V/Dis" viewBox="0 0 33.7 17.51">
            <rect class="cls-1" x="0.25" y="0.25" width="33.2" height="17.01" rx="1.7" />
            <path class="cls-2"
                d="M14.65,11.21h.13v3c0,.86.54,1.11,1.18,1.11V11.21h1.53L16,5.78h.26l.68,2.48a.85.85,0,0,0,1.19.58L17,5.09a1.35,1.35,0,0,0-1.31-1H13.59a1.35,1.35,0,0,0-1.31,1L11.21,8.84a.85.85,0,0,0,1.19-.58l.68-2.48h.26l-1.53,5.43h1.53v4.16c.64,0,1.18-.25,1.18-1.11v-3Z" />
            <path class="cls-2" d="M15.84,2.73a1.19,1.19,0,1,0-1.19,1.19,1.19,1.19,0,0,0,1.19-1.19Z" />
            <path class="cls-2" d="M6,2.74a1.2,1.2,0,1,0-2.39,0A1.2,1.2,0,0,0,6,2.74Z" />
            <path class="cls-2"
                d="M4.92,12.19v1.9c0,1,.62,1.28,1.37,1.28V6.15h.25v.61h0V8.31c0,.8.51,1,1.11,1V6.76h0V5.64A1.54,1.54,0,0,0,6.11,4.1H3.47A1.54,1.54,0,0,0,1.93,5.64V6.76h0V9.35c.6,0,1.11-.24,1.11-1V6.76H3V6.15H3.3v9.22c.74,0,1.36-.29,1.36-1.28V9.91h.26v2.28Z" />
            <path class="cls-2"
                d="M9.59,1.65h0a.6.6,0,0,0-.65.52V15.44a.6.6,0,0,0,.65.53h0a.61.61,0,0,0,.65-.53V2.17A.61.61,0,0,0,9.59,1.65Z" />
            <path class="cls-2"
                d="M19.73,1.65h0a.6.6,0,0,0-.65.52V15.44a.6.6,0,0,0,.65.53h0a.6.6,0,0,0,.65-.53V2.17A.6.6,0,0,0,19.73,1.65Z" />
            <g id="Toilet_D" data-name="Toilet D">
                <path class="cls-3"
                    d="M29.21,2A1.21,1.21,0,0,0,28,3.18a1.22,1.22,0,0,0,1,1.38,1.25,1.25,0,0,0,1.24-1.19,1.23,1.23,0,0,0-1-1.39ZM21.87,14.83a1.05,1.05,0,0,0,1.07-.67l1.29-2.73c.2-.41.31-.56.78-.56h3.43a1.19,1.19,0,0,0,1.12-1l.33-3.68a1.19,1.19,0,0,0-1.07-1.26A1.23,1.23,0,0,0,27.56,6l-.11.79H24.82a.6.6,0,0,0-.66.58,3.33,3.33,0,0,0,0,.49h3.21l-.14,1a.57.57,0,0,1-.56.45H24.41a1.37,1.37,0,0,0-1.18,1l-2,4.37a1.77,1.77,0,0,0,.66.21Zm2.77-.58a3.15,3.15,0,0,1-.77-1.06l.56-1.2a3.34,3.34,0,0,0,3.25,2.55,3.27,3.27,0,0,0,2.34-1,3.32,3.32,0,0,0,.06-4.67l.1-1.18,0,0a4.31,4.31,0,0,1-2.52,7.78A4.16,4.16,0,0,1,24.64,14.25Z" />
            </g>
        </symbol>
    </defs>
    <polygon id="Domestic_Food_court_BG_Colour" data-name="Domestic Food court BG Colour" class="cls-500"
        points="945.44 42.74 945.62 520.32 1.53 521.73 0.03 10.15 229.33 10.15 229.89 57.47 251.68 57.47 251.68 81.36 239.68 81.36 239.68 95.39 223.13 113.24 223.13 225.39 248.2 277.87 297.77 315.05 798.3 315.45 798.3 126.2 773.23 126.2 773.11 42.74 945.44 42.74" />
    <g id="Blocked_Areas" data-name="Blocked Areas">
        <polygon id="Blocked_Area" data-name="Blocked Area" class="cls-504"
            points="945.62 366.62 945.62 521.02 468.66 521.02 468.66 465.72 836.29 465.72 836.29 382.3 854.17 366.59 945.62 366.62" />
        <rect id="Blocked_Area-2" data-name="Blocked Area" class="cls-504" x="853.62" y="0.03" width="91.82"
            height="79.46" />
        <polygon id="Blocked_Area-3" data-name="Blocked Area" class="cls-504"
            points="156.91 47.37 156.91 10.15 94.52 10.15 94.52 54.8 153.13 54.8 153.13 54.8 156.91 47.37" />
        <rect id="Blocked_Area-4" data-name="Blocked Area" class="cls-504" x="0.03" y="465.72" width="287.99"
            height="55.31" />
    </g>
    <g id="F_B" data-name="F &amp; B">
        <g id="Air_India_Lounge" data-name="Air India Lounge">
            <polygon class="cls-503"
                points="945.44 78.41 945.44 366.59 854.17 366.59 841.52 353.58 868.32 335.91 868.32 291.57 857.15 279.52 857.15 232.94 868.1 221.13 868.1 184.43 853.91 169.13 853.73 78.41 945.44 78.41" />
            <text class="cls-7" transform="translate(911.36 264.24) rotate(-90) scale(1.08 1)">Air India Lounge
            </text>
        </g>
        <g id="Plaza_Premium_Lounge" data-name="Plaza Premium Lounge">
            <polygon class="cls-503"
                points="468.66 465.72 468.66 335.91 578.29 335.91 634.27 366.11 686.98 335.91 760.67 335.91 836.31 382.65 836.31 465.72 468.66 465.72" />
            <path class="cls-11" d="M984.17,530.54" transform="translate(-508.31 -76.08)" /><text class="cls-7"
                transform="translate(602.45 436.31) scale(0.93 1)">Plaza Premium Lounge
            </text>
        </g>
        <g id="Falafel">
            <polygon class="cls-501"
                points="190.45 376.23 169.75 406.59 169.75 406.78 169.75 465.57 216.35 465.86 216.35 416.93 230.05 416.93 236.31 399.52 220.52 392.94 208.09 387.07 194.17 378.48 190.45 376.23" />
            <text class="cls-18" transform="translate(177.81 435.66) scale(0.93 1)">
                <tspan class="cls-19">F</tspan>
                <tspan x="5.58" y="0">ala</tspan>
                <tspan class="cls-20" x="20.44" y="0">f</tspan>
                <tspan x="24.14" y="0">el</tspan>
            </text>
        </g>
        <g id="Biryani_Blues" data-name="Biryani Blues">
            <polygon class="cls-501"
                points="170.2 465.72 0.03 465.72 0.03 392.94 161.98 392.94 179.6 369.65 190.38 376.14 169.75 406.78 170.2 465.72" />
            <text class="cls-18" transform="translate(46.32 435.66) scale(0.93 1)">Bi<tspan class="cls-21" x="9.75"
                    y="0">r</tspan>
                <tspan class="cls-20" x="14.57" y="0">y</tspan>
                <tspan x="20.07" y="0">ani Blues</tspan>
                <tspan class="cls-22" x="64.8" y="0"> </tspan>
            </text>
        </g>
        <g id="Subway">
            <polygon class="cls-501"
                points="151.04 341.1 125.76 363.62 0.03 364.18 0.03 392.94 161.98 392.94 179.6 369.65 176.3 366.59 151.04 341.1" />
            <text class="cls-18" transform="translate(5.51 382.29) scale(0.93 1)">Sub<tspan class="cls-23" x="18.48"
                    y="0">w</tspan>
                <tspan class="cls-24" x="26.5" y="0">a</tspan>
                <tspan x="32.29" y="0">y</tspan>
            </text>
        </g>
        <g id="Carnatic_Cafe" data-name="Carnatic Cafe">
            <path class="cls-501"
                d="M632.08,379.71l-39.63,18.41H508.33v42.14l125.73-.56,25.29-22.51S635.76,390.57,632.08,379.71Z"
                transform="translate(-508.31 -76.08)" /><text class="cls-18"
                transform="translate(5.51 346.67) scale(0.93 1)">
                <tspan class="cls-25">C</tspan>
                <tspan class="cls-26" x="6.17" y="0">arnatic </tspan>
                <tspan class="cls-27" x="43.64" y="0">C</tspan>
                <tspan x="49.82" y="0">a</tspan>
                <tspan class="cls-20" x="55.72" y="0">f</tspan>
                <tspan x="59.42" y="0">e</tspan>
            </text>
        </g>
        <g id="Dhaba_T3" data-name="Dhaba@T3">
            <path class="cls-501" d="M612.25,337.3l-30.82,10.28h-73.1v50.54h84.12l39.63-18.41S618.8,357.38,612.25,337.3Z"
                transform="translate(-508.31 -76.08)" /><text class="cls-18"
                transform="translate(5.16 297.53) scale(0.93 1)">Dhaba<tspan class="cls-28" x="31.58" y="0">@</tspan>
                <tspan class="cls-29" x="40.65" y="0">T3</tspan>
            </text>
        </g>
        <g id="Papparoti">
            <path class="cls-501"
                d="M608.41,322.52,580,331.86H508.33v15.72h73.1l30.82-10.28A80.31,80.31,0,0,1,608.41,322.52Z"
                transform="translate(-508.31 -76.08)" /><text class="cls-18"
                transform="translate(5.17 267.57) scale(0.93 1)">
                <tspan class="cls-24">P</tspan>
                <tspan x="6.46" y="0">appa</tspan>
                <tspan class="cls-30" x="30.79" y="0">r</tspan>
                <tspan x="35.19" y="0">oti</tspan>
            </text>
        </g>
        <g id="Dominos">
            <polyline class="cls-501"
                points="100.11 246.44 71.64 255.77 0.03 255.77 0.03 235.94 98.44 235.94 100.11 246.44" /><text
                class="cls-18" transform="translate(5.16 249.59) scale(0.93 1)">Dominos</text>
        </g>
        <g id="Bercos">
            <path class="cls-501" d="M604.36,284.82h-96V312h98.41S603.57,290.6,604.36,284.82Z"
                transform="translate(-508.31 -76.08)" /><text class="cls-18"
                transform="translate(5.51 225.72) scale(0.93 1)">Be<tspan class="cls-30" x="12.59" y="0">r</tspan>
                <tspan class="cls-20" x="16.98" y="0">c</tspan>
                <tspan x="22.05" y="0">os</tspan>
            </text>
        </g>
        <g id="Wing_Ding" data-name="Wing Ding">
            <path class="cls-501" d="M605.75,254.62H508.33v30.2h96S603.37,263.83,605.75,254.62Z"
                transform="translate(-508.31 -76.08)" /><text class="cls-18"
                transform="translate(5.2 198.41) scale(0.93 1)">
                <tspan class="cls-30">W</tspan>
                <tspan x="9.11" y="0">i</tspan>
                <tspan class="cls-20" x="12.09" y="0">n</tspan>
                <tspan x="18.3" y="0">g Di</tspan>
                <tspan class="cls-20" x="37.21" y="0">n</tspan>
                <tspan x="43.42" y="0">g</tspan>
            </text>
        </g>
        <g id="Nourish">
            <polygon class="cls-501" points="102.61 148.76 0.03 148.76 0.03 178.54 97.44 178.54 102.61 148.76" /><text
                class="cls-18" transform="translate(5.2 167.94) scale(0.93 1)">Nourish</text>
        </g>
        <g id="KFC">
            <path class="cls-501" d="M636.22,167H508.33v57.83H610.91S627.29,177.3,636.22,167Z"
                transform="translate(-508.31 -76.08)" /><text class="cls-18"
                transform="translate(5.16 123.31) scale(0.93 1)">K<tspan class="cls-30" x="6.73" y="0">F</tspan>
                <tspan x="12.55" y="0">C</tspan>
            </text>
        </g>
        <g id="McDonalds">
            <polygon id="Restaurant" class="cls-501"
                points="152.9 54.85 128.68 90.62 0.03 90.62 0.03 10.15 94 10.15 94 54.85 152.9 54.85" /><text
                class="cls-31" transform="translate(5.2 64.09)">McDonalds</text>
        </g>
        <g id="Vacant">
            <polygon class="cls-501"
                points="402.16 335.91 468.66 335.91 468.66 465.72 330.13 465.72 330.13 410.93 386.28 410.93 402.16 335.91" />
            <text class="cls-18" transform="translate(402.41 436.31) scale(0.93 1)">
                <tspan class="cls-32">V</tspan>
                <tspan x="6.41" y="0">a</tspan>
                <tspan class="cls-25" x="12.32" y="0">c</tspan>
                <tspan class="cls-26" x="17.5" y="0">a</tspan>
                <tspan class="cls-23" x="23.41" y="0">n</tspan>
                <tspan x="29.62" y="0">t</tspan>
            </text>
        </g>
        <g id="Vacant-2" data-name="Vacant">
            <polygon class="cls-501"
                points="288.02 411.14 288.02 465.72 216.35 465.72 216.35 416.93 230.05 416.93 236.31 399.52 279.11 410.04 288.02 411.14" />
            <text class="cls-18" transform="translate(239.3 436.15) scale(0.93 1)">
                <tspan class="cls-32">V</tspan>
                <tspan x="6.41" y="0">a</tspan>
                <tspan class="cls-25" x="12.32" y="0">c</tspan>
                <tspan class="cls-26" x="17.5" y="0">a</tspan>
                <tspan class="cls-23" x="23.41" y="0">n</tspan>
                <tspan x="29.62" y="0">t</tspan>
            </text>
        </g>
    </g>
    <g id="Utilities">
        <use width="17.51" height="17.51" transform="translate(281.24 491.69) scale(1.68)"
            xlink:href="#Drinking_fountain" />
        <use width="17.51" height="17.51" transform="translate(337.49 400.81) scale(1.68 1.68)"
            xlink:href="#Smoking-area" />
        <use width="17.51" height="17.51" transform="translate(251.68 54.94) scale(1.68)" xlink:href="#Elevator" />
        <use width="17.51" height="17.51" transform="translate(801.57 8.48) scale(1.68)" xlink:href="#Elevator" />
        <g id="Restroom">
            <rect class="cls-502" x="330.13" y="465.72" width="138.53" height="55.31" />
            <use width="33.7" height="17.51" transform="translate(346.15 478.32) scale(1.68)"
                xlink:href="#Toilets_M_V_Dis" />
        </g>
        <g id="Escalator">
            <rect class="cls-34" x="228.46" y="28.12" width="107.87" height="10.07" />
            <line class="cls-35" x1="332.24" y1="28.12" x2="332.24" y2="38.19" />
            <line class="cls-35" x1="332.24" y1="28.12" x2="332.24" y2="38.19" />
            <line class="cls-35" x1="327.91" y1="28.12" x2="327.91" y2="38.19" />
            <line class="cls-35" x1="323.58" y1="28.12" x2="323.58" y2="38.19" />
            <line class="cls-35" x1="319.26" y1="28.12" x2="319.26" y2="38.19" />
            <line class="cls-35" x1="314.94" y1="28.12" x2="314.94" y2="38.19" />
            <line class="cls-35" x1="310.61" y1="28.12" x2="310.61" y2="38.19" />
            <line class="cls-35" x1="306.29" y1="28.12" x2="306.29" y2="38.19" />
            <line class="cls-35" x1="301.97" y1="28.12" x2="301.97" y2="38.19" />
            <line class="cls-35" x1="297.64" y1="28.12" x2="297.64" y2="38.19" />
            <line class="cls-35" x1="293.32" y1="28.12" x2="293.32" y2="38.19" />
            <line class="cls-35" x1="288.99" y1="28.12" x2="288.99" y2="38.19" />
            <line class="cls-35" x1="284.67" y1="28.12" x2="284.67" y2="38.19" />
            <line class="cls-35" x1="280.34" y1="28.12" x2="280.34" y2="38.19" />
            <line class="cls-35" x1="276.02" y1="28.12" x2="276.02" y2="38.19" />
            <line class="cls-35" x1="271.7" y1="28.12" x2="271.7" y2="38.19" />
            <line class="cls-35" x1="267.38" y1="28.12" x2="267.38" y2="38.19" />
            <line class="cls-35" x1="263.05" y1="28.12" x2="263.05" y2="38.19" />
            <line class="cls-35" x1="258.72" y1="28.12" x2="258.72" y2="38.19" />
            <line class="cls-35" x1="254.4" y1="28.12" x2="254.4" y2="38.19" />
            <line class="cls-35" x1="250.08" y1="28.12" x2="250.08" y2="38.19" />
            <line class="cls-35" x1="245.75" y1="28.12" x2="245.75" y2="38.19" />
            <line class="cls-35" x1="241.43" y1="28.12" x2="241.43" y2="38.19" />
            <line class="cls-35" x1="237.1" y1="28.12" x2="237.1" y2="38.19" />
            <line class="cls-35" x1="232.78" y1="28.12" x2="232.78" y2="38.19" />
            <line class="cls-35" x1="228.46" y1="28.12" x2="228.46" y2="38.19" />
            <line class="cls-36" x1="336.32" y1="38.19" x2="216.56" y2="38.19" />
            <line class="cls-36" x1="336.32" y1="28.12" x2="216.56" y2="28.12" />
            <rect class="cls-34" x="228.46" y="42.04" width="107.87" height="10.06" />
            <line class="cls-35" x1="332.24" y1="42.04" x2="332.24" y2="52.1" />
            <line class="cls-35" x1="332.24" y1="42.04" x2="332.24" y2="52.1" />
            <line class="cls-35" x1="327.91" y1="42.04" x2="327.91" y2="52.1" />
            <line class="cls-35" x1="323.58" y1="42.04" x2="323.58" y2="52.1" />
            <line class="cls-35" x1="319.26" y1="42.04" x2="319.26" y2="52.1" />
            <line class="cls-35" x1="314.94" y1="42.04" x2="314.94" y2="52.1" />
            <line class="cls-35" x1="310.61" y1="42.04" x2="310.61" y2="52.1" />
            <line class="cls-35" x1="306.29" y1="42.04" x2="306.29" y2="52.1" />
            <line class="cls-35" x1="301.97" y1="42.04" x2="301.97" y2="52.1" />
            <line class="cls-35" x1="297.64" y1="42.04" x2="297.64" y2="52.1" />
            <line class="cls-35" x1="293.32" y1="42.04" x2="293.32" y2="52.1" />
            <line class="cls-35" x1="288.99" y1="42.04" x2="288.99" y2="52.1" />
            <line class="cls-35" x1="284.67" y1="42.04" x2="284.67" y2="52.1" />
            <line class="cls-35" x1="280.34" y1="42.04" x2="280.34" y2="52.1" />
            <line class="cls-35" x1="276.02" y1="42.04" x2="276.02" y2="52.1" />
            <line class="cls-35" x1="271.7" y1="42.04" x2="271.7" y2="52.1" />
            <line class="cls-35" x1="267.38" y1="42.04" x2="267.38" y2="52.1" />
            <line class="cls-35" x1="263.05" y1="42.04" x2="263.05" y2="52.1" />
            <line class="cls-35" x1="258.72" y1="42.04" x2="258.72" y2="52.1" />
            <line class="cls-35" x1="254.4" y1="42.04" x2="254.4" y2="52.1" />
            <line class="cls-35" x1="250.08" y1="42.04" x2="250.08" y2="52.1" />
            <line class="cls-35" x1="245.75" y1="42.04" x2="245.75" y2="52.1" />
            <line class="cls-35" x1="241.43" y1="42.04" x2="241.43" y2="52.1" />
            <line class="cls-35" x1="237.1" y1="42.04" x2="237.1" y2="52.1" />
            <line class="cls-35" x1="232.78" y1="42.04" x2="232.78" y2="52.1" />
            <line class="cls-35" x1="228.46" y1="42.04" x2="228.46" y2="52.1" />
            <line class="cls-36" x1="336.32" y1="52.1" x2="216.56" y2="52.1" />
            <line class="cls-36" x1="336.32" y1="42.04" x2="216.56" y2="42.04" />
            <g id="Escalator_D" data-name="Escalator D">
                <rect class="cls-37" x="200.4" y="24.78" width="29.38" height="29.38" rx="2.94" />
                <path class="cls-3"
                    d="M714.87,119.44l3.23,3.23h-3.16l.72.73a1.65,1.65,0,0,0,1.19.39H720v-3.16a1.71,1.71,0,0,0-.4-1.19l-.72-.72v2h0v1.18l-3.24-3.23h0l-.79.79Z"
                    transform="translate(-508.31 -76.08)" />
                <path class="cls-3"
                    d="M727,107.77a1.6,1.6,0,1,0-1.6,1.6,1.6,1.6,0,0,0,1.6-1.6Zm-7.65,2.53,9.54,9.08a2.17,2.17,0,0,0,1.89.72l1.82,0a1.68,1.68,0,1,1,0,3.35H729.7a2.77,2.77,0,0,1-2.08-.94l-9.18-8.87a3.44,3.44,0,0,0-2.4-1h-1.67a1.68,1.68,0,0,1,0-3.35h2.87a2.76,2.76,0,0,1,2.07.93Zm7.65,5.09,2.37,2.42a2,2,0,0,0,1.71.83l1.52,0a3.13,3.13,0,1,1,0,6.25H729.4a3.46,3.46,0,0,1-2.4-1l-9.17-8.87a2.75,2.75,0,0,0-2.08-.94h-1.53a3.13,3.13,0,1,1,0-6.26h3.31a3.45,3.45,0,0,1,2.4,1l3.83,3.54v-1.16a1.6,1.6,0,0,1,3.2,0Z"
                    transform="translate(-508.31 -76.08)" />
            </g>
        </g>
        <g id="Sitting_Area" data-name="Sitting Area">
            <polygon id="Sitting_Area-2 " data-name="Sitting Area" class="cls-505 sitting"
                points="365.23 315.1 297.77 315.05 248.2 277.87 223.13 225.39 223.13 113.24 239.68 95.39 161 96.74 145.64 114.22 129.52 157.57 124.73 208.74 124.73 228.08 134.14 260.51 148.85 292.82 173.27 327.69 187.29 340.31 206.42 356.48 244.34 375.25 259 378.16 278.73 381.86 287.36 383.66 348.45 386.36 365.23 315.1" />
            <g id="Icon">
                <rect class="cls-39" x="175.69" y="228.35" width="29.38" height="29.38" rx="0.74" />
                <path
                    d="M700.71,323h2.41a2.25,2.25,0,0,1,2.22,1.39c.56,1.17,1.14,2.33,1.72,3.49l.13.26a2.92,2.92,0,0,1,.37-.17.45.45,0,0,1,.57.22.41.41,0,0,1-.19.57c-.79.4-1.6.79-2.4,1.16-.26.12-.46,0-.62-.31l-1.41-2.87c-.14-.28-.28-.55-.4-.83a.37.37,0,0,0-.4-.25l-4.74,0a2.15,2.15,0,0,1-2.19-1.83,1.55,1.55,0,0,1,0-.31c0-2.45,0-4.9,0-7.35a2.46,2.46,0,0,1,1.89-2.36A2.48,2.48,0,0,1,700.4,315a2.72,2.72,0,0,1,.31,1.34V323Z"
                    transform="translate(-508.31 -76.08)" />
                <path
                    d="M694.7,325.26l-.22.37-1.4,2.38-.12.22a.45.45,0,0,1-.61.16.44.44,0,0,1-.15-.63c.37-.65.76-1.3,1.14-1.95.19-.32.37-.64.56-.95a.22.22,0,0,0,0-.32,3.92,3.92,0,0,1-1-2.66v-9.76a1.47,1.47,0,0,1,0-.36.4.4,0,0,1,.46-.28.4.4,0,0,1,.38.35,1.82,1.82,0,0,1,0,.33c0,3.23,0,6.47,0,9.7a3,3,0,0,0,2,3,3.85,3.85,0,0,0,1.07.16c1,0,2.06,0,3.09,0a1.45,1.45,0,0,1,1.44.89c.29.64.61,1.25.91,1.88a.45.45,0,1,1-.8.4,1,1,0,0,1-.07-.15c-.29-.59-.58-1.17-.85-1.76a.57.57,0,0,0-.59-.36c-.88,0-1.75,0-2.62,0A4.35,4.35,0,0,1,694.7,325.26Z"
                    transform="translate(-508.31 -76.08)" />
                <path d="M698.34,313.49a2.6,2.6,0,0,1,0-5.19,2.6,2.6,0,1,1,0,5.19Z"
                    transform="translate(-508.31 -76.08)" />
            </g>
        </g>
    </g>
</svg>