<svg id="dialMap" data-name="International Food Court" xmlns="http://www.w3.org/2000/svg"
    xmlns:xlink="http://www.w3.org/1999/xlink" viewBox="0 0 1518 723">
    <defs>
        <style>
            .cls-1,
            .cls-27 {
                fill: none;
            }

            .cls-2,
            .cls-21,
            .cls-28,
            .cls-31 {
                fill: #fff;
            }

            .cls-2,
            .cls-28,
            .cls-31 {
                stroke: #231f20;
            }

            .cls-2 {
                stroke-width: 0.5px;
            }

            .cls-3,
            .cls-4 {
                fill: #231f20;
            }

            .cls-21,
            .cls-4 {
                fill-rule: evenodd;
            }

            .cls-600 {
                fill: #ffefc2;
            }

            .cls-603,
            .cls-602,
            .cls-605,
            .cls-600,
            .cls-7,
            .cls-601 {
                stroke: #4a4a49;
            }

            .cls-603,
            .cls-26,
            .cls-27,
            .cls-602,
            .cls-605,
            .cls-600,
            .cls-7,
            .cls-601 {
                stroke-width: 0.05px;
            }

            .cls-6,
            .cls-7 {
                fill: #817369;
            }

            .cls-7 {
                stroke-miterlimit: 3;
            }

            .cls-601 {
                fill: #faa71b;
            }
            .cls-604{
                fill: #a9e0f9;
            }

            .cls-9 {
                font-size: 9.92px;
                font-family: Amplitude-Regular;
            }

            .cls-10 {
                letter-spacing: -0.01em;
            }

            .cls-11 {
                letter-spacing: 0.01em;
            }

            .cls-12 {
                letter-spacing: 0em;
            }

            .cls-13 {
                letter-spacing: -0.06em;
            }

            .cls-14 {
                letter-spacing: -0.04em;
            }

            .cls-15 {
                letter-spacing: 0em;
            }

            .cls-16 {
                letter-spacing: 0em;
            }

            .cls-17 {
                letter-spacing: -0.01em;
            }

            .cls-18 {
                letter-spacing: 0em;
            }

            .cls-19 {
                letter-spacing: -0.02em;
            }

            .cls-20 {
                clip-path: url(#clip-path);
            }

            .cls-21 {
                stroke: #000;
            }

            .cls-21,
            .cls-605,
            .cls-31 {
                stroke-miterlimit: 10;
            }

            .cls-21,
            .cls-28,
            .cls-31 {
                stroke-width: 0.1px;
            }

            .cls-603 {
                fill: #3ec2cf;
            }

            .cls-23 {
                letter-spacing: -0.02em;
            }

            .cls-24 {
                letter-spacing: -0.03em;
            }

            .cls-25 {
                fill: #a8b2b8;
            }

            .cls-26 {
                fill: #e6e7e8;
                stroke: #e6e7e8;
            }

            .cls-27 {
                stroke: #414042;
            }

            .cls-602 {
                fill: #4d90cd;
            }

            .cls-605 {
                fill: #f8d381;
            }
            .blink {
                -webkit-animation: fadein 200ms linear alternate infinite;
                -moz-animation: fadein 200ms linear alternate infinite;
                animation: fadein 200ms linear alternate infinite;
            }
            @keyframes fadein {
                from {
                    opacity: 0.5;
                }
                to {
                    opacity: 1;
                }
            }
        </style>
        <clipPath id="clip-path">
            <rect class="cls-1" x="811.5" y="375.04" width="26" height="23.72" />
        </clipPath>
        <symbol id="Elevator" data-name="Elevator" viewBox="0 0 17.51 17.51">
            <g id="Elevator-3" data-name="Elevator">
                <rect class="cls-2" x="0.25" y="0.25" width="17.01" height="17.01" rx="1.7" />
                <path class="cls-4"
                    d="M5.38,7.81h6.74a.21.21,0,0,1,.21.21v6.74a.2.2,0,0,1-.21.2H5.38a.2.2,0,0,1-.2-.2V8a.2.2,0,0,1,.2-.21Zm0-.64A.85.85,0,0,0,4.54,8v6.74a.85.85,0,0,0,.84.84h6.74a.85.85,0,0,0,.85-.84V8a.85.85,0,0,0-.85-.85Zm3.37,5.16H8.8v1c0,.29.18.37.4.37V12.33h.52L9.2,10.48h.09l.23.84a.29.29,0,0,0,.4.2l-.36-1.28a.45.45,0,0,0-.44-.34H8.39a.45.45,0,0,0-.44.34l-.37,1.28c.24.06.36,0,.41-.2l.23-.84h.09l-.52,1.85h.52v1.41c.22,0,.4-.08.4-.37v-1Zm-.4-2.9a.41.41,0,1,0,.4-.4.4.4,0,0,0-.4.4Zm2.24,0A.41.41,0,1,0,11,9a.4.4,0,0,0-.41.41ZM11,12.66v-.78H11v1.43c0,.33.22.43.47.43V10.6h.09v.21h0v.53c0,.27.17.35.38.35v-.88h0v-.38a.53.53,0,0,0-.53-.53h-.9a.53.53,0,0,0-.53.53v.38h0v.88c.21,0,.38-.08.38-.35v-.53h0V10.6h.09v3.14c.25,0,.47-.1.47-.43v-.65ZM6.1,9.44a.4.4,0,0,0,.41.4.41.41,0,1,0,0-.81.41.41,0,0,0-.41.41Zm.36,3.22v-.78h.09v1.43c0,.33.21.43.47.43V10.6H7.1v.21h0v.53c0,.27.18.35.38.35v-.88h0v-.38A.52.52,0,0,0,7,9.9h-.9a.53.53,0,0,0-.53.53v.38h0v.88c.21,0,.38-.08.38-.35v-.53h0V10.6H6v3.14c.25,0,.46-.1.46-.43v-.65Zm4.9-10.75V5.19l.6-.6h0l1-1v.74a1.26,1.26,0,0,1-.4.8l-1,1L11,6.72h0l-.57-.56-1-1A1.21,1.21,0,0,1,9,4.32V3.58l1,1h0l.6.6V1.91h.8ZM6.15,6.72V3.44l-.6.6h0l-1,1V4.32a1.26,1.26,0,0,1,.4-.81l1-1,.57-.56h0l.56.56,1,1a1.22,1.22,0,0,1,.4.81v.73l-1-1h0L7,3.44V6.72h-.8Z" />
            </g>
        </symbol>
        <symbol id="Smoking-area" data-name="Smoking-area" viewBox="0 0 17.51 17.51">
            <g id="Smoking">
                <rect class="cls-2" x="0.25" y="0.25" width="17.01" height="17.01" rx="1.7" />
                <path class="cls-3"
                    d="M14.52,13.27H15V11.58h-.47v1.69Zm-12,0H13.3V11.59H2.52v1.68Zm11.1,0h.53V11.58h-.53v1.69ZM10.29,4.76a1.23,1.23,0,0,0,0,2.46,1.62,1.62,0,0,1,.33,0,.32.32,0,0,1,.32.34.47.47,0,0,1,0,.16.83.83,0,0,0-.26.62.75.75,0,0,0,.7.78h1.93a1,1,0,0,1,.88,1.06v1.05h-.53v-1c0-.33-.15-.61-.35-.61H11.34a1.23,1.23,0,0,1-1.22-1.23,1.21,1.21,0,0,1,.22-.7A1.79,1.79,0,0,1,8.54,6a1.75,1.75,0,0,1,1.75-1.75v.52Zm1.63,3a.34.34,0,0,0-.05.17.43.43,0,0,0,.47.37c1.42,0,2.12.52,2.12,1.93v1.05H15V10.2a2.15,2.15,0,0,0-2.45-2.46,2,2,0,0,0,.35-1A1.93,1.93,0,0,0,11,4.76v.53a1.4,1.4,0,0,1,1.4,1.4A1.37,1.37,0,0,1,11.92,7.73Z" />
            </g>
        </symbol>
        <symbol id="Toilets_M_V_Dis" data-name="Toilets M/V/Dis" viewBox="0 0 33.7 17.51">
            <rect class="cls-2" x="0.25" y="0.25" width="33.2" height="17.01" rx="1.7" />
            <path class="cls-3"
                d="M14.65,11.21h.13v3c0,.86.54,1.11,1.18,1.11V11.21h1.53L16,5.78h.26l.68,2.48a.85.85,0,0,0,1.19.58L17,5.09a1.35,1.35,0,0,0-1.31-1H13.59a1.35,1.35,0,0,0-1.31,1L11.21,8.84a.85.85,0,0,0,1.19-.58l.68-2.48h.26l-1.53,5.43h1.53v4.16c.64,0,1.18-.25,1.18-1.11v-3Z" />
            <path class="cls-3" d="M15.84,2.73a1.19,1.19,0,1,0-1.19,1.19,1.19,1.19,0,0,0,1.19-1.19Z" />
            <path class="cls-3" d="M6,2.74a1.2,1.2,0,1,0-2.39,0A1.2,1.2,0,0,0,6,2.74Z" />
            <path class="cls-3"
                d="M4.92,12.19v1.9c0,1,.62,1.28,1.37,1.28V6.15h.25v.61h0V8.31c0,.8.51,1,1.11,1V6.76h0V5.64A1.54,1.54,0,0,0,6.11,4.1H3.47A1.54,1.54,0,0,0,1.93,5.64V6.76h0V9.35c.6,0,1.11-.24,1.11-1V6.76H3V6.15H3.3v9.22c.74,0,1.36-.29,1.36-1.28V9.91h.26v2.28Z" />
            <path class="cls-3"
                d="M9.59,1.65h0a.6.6,0,0,0-.65.52V15.44a.6.6,0,0,0,.65.53h0a.61.61,0,0,0,.65-.53V2.17A.61.61,0,0,0,9.59,1.65Z" />
            <path class="cls-3"
                d="M19.73,1.65h0a.6.6,0,0,0-.65.52V15.44a.6.6,0,0,0,.65.53h0a.6.6,0,0,0,.65-.53V2.17A.6.6,0,0,0,19.73,1.65Z" />
            <g id="Toilet_D" data-name="Toilet D">
                <path class="cls-4"
                    d="M29.21,2A1.21,1.21,0,0,0,28,3.18a1.22,1.22,0,0,0,1,1.38,1.25,1.25,0,0,0,1.24-1.19,1.23,1.23,0,0,0-1-1.39ZM21.87,14.83a1.05,1.05,0,0,0,1.07-.67l1.29-2.73c.2-.41.31-.56.78-.56h3.43a1.19,1.19,0,0,0,1.12-1l.33-3.68a1.19,1.19,0,0,0-1.07-1.26A1.23,1.23,0,0,0,27.56,6l-.11.79H24.82a.6.6,0,0,0-.66.58,3.33,3.33,0,0,0,0,.49h3.21l-.14,1a.57.57,0,0,1-.56.45H24.41a1.37,1.37,0,0,0-1.18,1l-2,4.37a1.77,1.77,0,0,0,.66.21Zm2.77-.58a3.15,3.15,0,0,1-.77-1.06l.56-1.2a3.34,3.34,0,0,0,3.25,2.55,3.27,3.27,0,0,0,2.34-1,3.32,3.32,0,0,0,.06-4.67l.1-1.18,0,0a4.31,4.31,0,0,1-2.52,7.78A4.16,4.16,0,0,1,24.64,14.25Z" />
            </g>
        </symbol>
        <symbol id="Drinking_fountain" data-name="Drinking fountain" viewBox="0 0 17.51 17.51">
            <g id="Drinking_Fountain-3" data-name="Drinking Fountain">
                <rect class="cls-2" x="0.25" y="0.25" width="17.01" height="17.01" rx="1.7" />
                <path class="cls-3"
                    d="M8,7.47a.49.49,0,0,0-.34-.83H3.55v3.64h2L8,7.47ZM8.65,3.8A1.3,1.3,0,1,0,7.36,5.1,1.29,1.29,0,0,0,8.65,3.8ZM7,6.31a.16.16,0,1,0-.16.16A.16.16,0,0,0,7,6.31Zm-.44,0a.17.17,0,0,0-.17-.16.16.16,0,1,0,0,.32.17.17,0,0,0,.17-.16Zm.4-.44A.16.16,0,1,0,6.75,6a.16.16,0,0,0,.16-.16Zm-.44,0a.17.17,0,0,0-.17-.16A.16.16,0,0,0,6.3,6a.17.17,0,0,0,.17-.16Zm.28-.41a.16.16,0,1,0-.16.16.16.16,0,0,0,.16-.16Zm-.53.08a.16.16,0,1,1-.32,0,.16.16,0,1,1,.32,0Zm.21-.4a.16.16,0,0,1-.17.16.16.16,0,0,1-.16-.16A.17.17,0,0,1,6.26,5a.17.17,0,0,1,.17.17Zm-.61.24a.16.16,0,0,0-.16-.16.16.16,0,0,0-.17.16.17.17,0,0,0,.17.17.17.17,0,0,0,.16-.17ZM6,5a.16.16,0,0,0-.17-.16A.16.16,0,0,0,5.65,5a.16.16,0,0,0,.16.17A.16.16,0,0,0,6,5ZM5.5,5a.18.18,0,0,0-.17-.18A.18.18,0,0,0,5.15,5a.18.18,0,0,0,.18.17A.18.18,0,0,0,5.5,5Zm-.08.6a.18.18,0,0,0-.18-.17.17.17,0,0,0-.17.17.17.17,0,0,0,.17.18.18.18,0,0,0,.18-.18Zm-.33-.36A.18.18,0,0,0,4.91,5a.18.18,0,0,0-.17.18.18.18,0,0,0,.17.17.18.18,0,0,0,.18-.17ZM5.17,6a.2.2,0,1,1-.2-.2.2.2,0,0,1,.2.2Zm-.4-.37a.21.21,0,0,1-.21.21.2.2,0,0,1-.2-.21.2.2,0,0,1,.2-.2.2.2,0,0,1,.21.2Zm3.74,3.8a1.44,1.44,0,0,1-1.58,0L8.57,7.49V5.22A1.26,1.26,0,0,1,9.83,4a1.19,1.19,0,0,1,.56.14l3.1,1.7a1,1,0,0,1,.47.82V8.09h0v5.13c0,1.37-.87,1.78-1.91,1.78V7.85L9.79,6.64v.85a1.26,1.26,0,0,1-.43.94Z" />
            </g>
        </symbol>
    </defs>
    <path id="International_Foodcourt_BG_Colour" data-name="International Foodcourt BG Colour" class="cls-600"
        d="M832.31,500.57H689.7v64.26l-477.39-1.77V115.14H441.39v25.22H345.46V166H362l16.53.17s12,42.87-33.12,52.73c.22.39,0,151.27,0,151.27l638.5-3.92V189.56H897.61s-21.16,26.95-72.74,31.36c0,0-43.43,2.92-60.45-23.64,0,0-23.2-33.84,31.19-65.08.11,0,22.81-11.63,38.4-13,0,0,.61,1.75.61,1.75H946.26V169.4h36.65V97.65H1174V498.93Z" />
    <path id="Blocked_Area" data-name="Blocked Area" class="cls-6"
        d="M817.06,438.1v62.28H754.78s4.75-57.53,20.58-74.41C775.36,425.44,817.06,438.1,817.06,438.1Z" />
    <polygon id="Blocked_Area-2" data-name="Blocked Area" class="cls-7"
        points="669.12 457.95 702.52 397.9 688.07 390.06 551.29 390.92 551.29 501.48 589.62 501.48 589.62 564.83 1173.97 564.83 1173.97 500.82 669.12 500.82 669.12 457.95" />
    <g id="F_B" data-name="F&amp;B">
        <g id="The_Coffee_Bean_Tea_leaf" data-name="The Coffee Bean &amp; Tea leaf">
            <ellipse class="cls-601" cx="835.55" cy="169.4" rx="77.25" ry="49.58"
                transform="translate(-16.15 207.45) rotate(-14.02)" /><text class="cls-9"
                transform="translate(781.93 170.66)">The Coffee Bean &amp; Tea Leaf 
            </text>
        </g>
        <g id="Vacant">
            <path class="cls-601"
                d="M1174,103v81.6h-84v-45s-10.9-14.6-21.1-13.54c0,.17-6.33.35-6.33.35V113h-58.21V103Z" /><text
                class="cls-9" transform="translate(1141.03 151.37)">
                <tspan class="cls-14">V</tspan>
                <tspan x="5.27" y="0">a</tspan>
                <tspan class="cls-15" x="10.12" y="0">c</tspan>
                <tspan class="cls-16" x="14.37" y="0">a</tspan>
                <tspan class="cls-17" x="19.22" y="0">n</tspan>
                <tspan x="24.32" y="0">t</tspan>
            </text>
        </g>
        <g id="Dilli_Streat" data-name="Dilli Streat">
            <rect class="cls-601" x="1090.61" y="197.11" width="83.36" height="38.87" /><text class="cls-9"
                transform="translate(1125.6 219.49)">Dilli Streat
            </text>
        </g>
        <g id="Bercos">
            <rect class="cls-601" x="1090.6" y="235.97" width="83.36" height="40.1" /><text class="cls-9"
                transform="translate(1140.93 257.42)">Becos
            </text>
        </g>
        <g id="Subway">
            <rect class="cls-601" x="1090.61" y="276.59" width="83.36" height="42.05" /><text class="cls-9"
                transform="translate(1137.56 300.24)">Subway
            </text>
        </g>
        <g id="Dominos_Pizza" data-name="Dominos Pizza">
            <path class="cls-601" d="M1174,318.64h-83.36s-.1,32.08-3.43,40.1H1174Z" /><text class="cls-9"
                transform="translate(1109.93 340.46)">Dominos Pizza</text>
        </g>
        <g id="McDonalds">
            <path class="cls-601" d="M1087.18,358.74H1174V399.1h-94.7l-7.39-7.39A340.78,340.78,0,0,0,1087.18,358.74Z" />
            <text class="cls-9" transform="translate(1123.99 380.19)">McDonalds</text>
        </g>
        <g id="KFC">
            <path class="cls-601"
                d="M1071.88,391.75l7.39,7.38H1174v100l-160.33,1.14V449.6S1043.13,436.33,1071.88,391.75Z" /><text
                class="cls-9" transform="translate(1092.96 466.18)">KFC
            </text>
        </g>
        <g id="Idli.com">
            <rect class="cls-601" x="963.09" y="452.53" width="26.38" height="47.18"
                transform="translate(1952.56 952.25) rotate(180)" /><text class="cls-9"
                transform="translate(979.21 486.52) rotate(-90)">Idli<tspan class="cls-19" x="12.79" y="0">.</tspan>
                <tspan class="cls-12" x="15.14" y="0">c</tspan>
                <tspan x="19.29" y="0">om</tspan>
            </text>
        </g>
        <g id="Curry_Kitchen" data-name="Curry Kitchen">
            <rect class="cls-601" x="937.76" y="452.53" width="25.32" height="47.18"
                transform="translate(1900.85 952.25) rotate(180)" />
            <path
                d="M948.53,479.77a2.41,2.41,0,0,1-.26,1.19,2,2,0,0,1-.71.8,3.1,3.1,0,0,1-1.08.44,6.9,6.9,0,0,1-1.33.13,6,6,0,0,1-1.32-.14,3.1,3.1,0,0,1-1.06-.46,2.09,2.09,0,0,1-.7-.8,2.58,2.58,0,0,1-.25-1.19,3.78,3.78,0,0,1,.09-.88,4.26,4.26,0,0,1,.25-.71l.78.12c-.05.15-.09.29-.13.42s-.06.25-.08.37a2,2,0,0,0-.06.35c0,.12,0,.25,0,.39a1.61,1.61,0,0,0,.1.58,1.08,1.08,0,0,0,.36.47,2,2,0,0,0,.71.31,4.49,4.49,0,0,0,1.13.12h.32a5.57,5.57,0,0,0,1.18-.11,2.37,2.37,0,0,0,.76-.29,1.07,1.07,0,0,0,.41-.47,1.45,1.45,0,0,0,.13-.63,2.81,2.81,0,0,0,0-.43c0-.12-.05-.24-.08-.36a2.91,2.91,0,0,0-.12-.35c0-.11-.1-.24-.15-.38l.76-.22a5.35,5.35,0,0,1,.28.77A3.5,3.5,0,0,1,948.53,479.77Z" />
            <path
                d="M943.2,474.33v-.91h5.19V474l-.63.32.54.45a2.07,2.07,0,0,1,.14.42,2.32,2.32,0,0,1,.06.55,1.36,1.36,0,0,1-.39,1,1.81,1.81,0,0,1-1.26.37H943.2v-.91H947a.88.88,0,0,0,.66-.2.76.76,0,0,0,.19-.54,1.56,1.56,0,0,0-.11-.62,3.71,3.71,0,0,0-.27-.52Z" />
            <path
                d="M943.27,470.54a1.66,1.66,0,0,1-.13-.35,1.58,1.58,0,0,1,0-.38,1.18,1.18,0,0,1,0-.4.86.86,0,0,1,.1-.25l.83.17a2.11,2.11,0,0,0-.1.3,1.66,1.66,0,0,0,0,.42,1.29,1.29,0,0,0,.1.53,2.4,2.4,0,0,0,.27.46h4.08V472H943.2v-.55l.7-.34Z" />
            <path
                d="M943.27,466.83a1.66,1.66,0,0,1-.13-.35,1.58,1.58,0,0,1,0-.38,1.18,1.18,0,0,1,0-.4.86.86,0,0,1,.1-.25l.83.17a2.11,2.11,0,0,0-.1.3,1.66,1.66,0,0,0,0,.42,1.29,1.29,0,0,0,.1.53,2.4,2.4,0,0,0,.27.46h4.08v.91H943.2v-.55l.7-.34Z" />
            <path d="M948.24,463.16l-5,1.67v-.94l3-.93,1.51-.25-1.51-.27-3-.92v-.86l6.8,2.16v.88Z" />
            <path d="M951.86,481.54v-1l3,2.38.56-.73,2.93-1.72v1.1l-3.09,1.8.77.57h2.32v1h-6.45v-1h2.08l1.2.17Z" />
            <path
                d="M952.23,479.05a.6.6,0,0,1-.16.42.51.51,0,0,1-.41.18.53.53,0,0,1-.42-.18.61.61,0,0,1-.17-.42.57.57,0,0,1,.17-.41.52.52,0,0,1,.42-.17.5.5,0,0,1,.41.17A.56.56,0,0,1,952.23,479.05Zm.89.47v-.92h5.19v.92Z" />
            <path
                d="M958.42,475.87a1,1,0,0,1-.33.85,1.54,1.54,0,0,1-1,.27h-3.29v.61h-.67v-.67l-1.4-.44v-.41h1.4v-1.14h.67v1.14h3.49a.5.5,0,0,0,.35-.1.5.5,0,0,0,.1-.37v-.74l.48-.05a3.11,3.11,0,0,1,.15.46A2.61,2.61,0,0,1,958.42,475.87Z" />
            <path
                d="M958.45,472.09a1.81,1.81,0,0,1-.69,1.52,3.35,3.35,0,0,1-2,.52,3.31,3.31,0,0,1-2-.51,1.84,1.84,0,0,1-.66-1.53,3.32,3.32,0,0,1,.09-.8,3.6,3.6,0,0,1,.21-.61l.7.14c-.07.22-.13.43-.18.62a2.81,2.81,0,0,0-.06.59,1.49,1.49,0,0,0,.07.49.78.78,0,0,0,.28.37,1.64,1.64,0,0,0,.56.21,4.37,4.37,0,0,0,.91.08h.16a5,5,0,0,0,1-.08,1.67,1.67,0,0,0,.6-.22.81.81,0,0,0,.31-.36,1.26,1.26,0,0,0,.09-.49,1.83,1.83,0,0,0-.1-.64,5.45,5.45,0,0,0-.24-.61l.69-.15a4.21,4.21,0,0,1,.27.62A2.66,2.66,0,0,1,958.45,472.09Z" />
            <path
                d="M958.31,468.7v.91h-7.12v-.91h2.57l-.54-.47a2.64,2.64,0,0,1-.14-.4,2.23,2.23,0,0,1-.06-.54,1.39,1.39,0,0,1,.38-1,1.77,1.77,0,0,1,1.26-.37h3.65v.91h-3.77a.75.75,0,0,0-.61.21.86.86,0,0,0-.17.55,1.51,1.51,0,0,0,.1.6,4.18,4.18,0,0,0,.29.54Z" />
            <path
                d="M956.81,463.74a1.19,1.19,0,0,0,.52-.23.87.87,0,0,0,.29-.39,1.6,1.6,0,0,0,.09-.56,2.63,2.63,0,0,0-.1-.7q-.11-.33-.24-.66l.68-.15a3.27,3.27,0,0,1,.27.65,3,3,0,0,1,.13.92,2,2,0,0,1-.68,1.61,3.21,3.21,0,0,1-2,.55,3.07,3.07,0,0,1-2-.57,1.86,1.86,0,0,1-.66-1.5,1.57,1.57,0,0,1,.65-1.41,3.05,3.05,0,0,1,1.77-.45H956v3A4.33,4.33,0,0,0,956.81,463.74Zm-1.46-2h-.16A2.07,2.07,0,0,0,954,462a.83.83,0,0,0-.34.74,1.63,1.63,0,0,0,.07.45.78.78,0,0,0,.26.34,1.42,1.42,0,0,0,.51.22,4.07,4.07,0,0,0,.82.11Z" />
            <path
                d="M953.22,458.3a2.64,2.64,0,0,1-.14-.4,2.23,2.23,0,0,1-.06-.54,1.39,1.39,0,0,1,.38-1,1.77,1.77,0,0,1,1.26-.37h3.65v.91h-3.77a.75.75,0,0,0-.61.21.89.89,0,0,0-.17.56,1.49,1.49,0,0,0,.1.59,3.62,3.62,0,0,0,.29.54h4.16v.91h-5.19v-.56l.66-.33Z" />
        </g>
        <g id="Play_Area">
            <path class="cls-605 playArea"
                d="M883.8,368.21v49.91s-112.11-13.58-171.6-49.91C711.84,368.57,883.8,368.21,883.8,368.21Z" />
            <g class="cls-20">
                <path class="cls-28"
                    d="M834.9,375H814.1a2.5,2.5,0,0,0-2.6,2.37v19a2.5,2.5,0,0,0,2.6,2.37h20.8a2.5,2.5,0,0,0,2.6-2.37v-19a2.5,2.5,0,0,0-2.6-2.37" />
                <path class="cls-3"
                    d="M827.64,390.35a1.11,1.11,0,0,1,1-1H830l1.87-1.61a1,1,0,0,1,.66-.2,1,1,0,0,1,1,.9v2.92a.9.9,0,0,1-.44.8V396c0,1-.7,1.32-1.54,1.32v-7.83l-1.1.9Zm5.87-4.15a1.18,1.18,0,1,0-1.18,1.08,1.13,1.13,0,0,0,1.18-1.08" />
                <path class="cls-3"
                    d="M823.63,391.18h-.51v3.47a1.16,1.16,0,0,1-1.37-1.19v-2.28h-.53v2.28a1.17,1.17,0,0,1-1.38,1.19v-3.47h-3.58a.69.69,0,1,1,0-1.37h3.59v-.5a.7.7,0,0,1,1.37,0h0v.5h.53v-.5h0a.7.7,0,0,1,1.37,0v.5h3.82a.69.69,0,1,1,0,1.37Zm-2.12-5.89c-2.19,0-3.39-.05-5.59-.1a1.21,1.21,0,0,0,1.35,1.36c1.3,0,1.6.07,2.9.07l-1,3h.42c0-1,.85-1,1.92-1s2,.07,2,1.05h.41l-1-3c1.3,0,1.79,0,3.09-.07a1.2,1.2,0,0,0,1.34-1.36c-2.19.05-3.58.09-5.77.1m-1.24-1.46a1.41,1.41,0,1,1,1.4,1.27,1.34,1.34,0,0,1-1.4-1.27" />
                <path class="cls-4"
                    d="M816.53,387.76a.29.29,0,0,1,.31.28.31.31,0,0,1-.62,0,.29.29,0,0,1,.31-.28m0,1.14a.29.29,0,1,1-.31.28.3.3,0,0,1,.31-.28m0-2.29a.29.29,0,1,1-.31.28.3.3,0,0,1,.31-.28m0-1.14a.28.28,0,1,1,0,.56.28.28,0,1,1,0-.56m0-1.15a.29.29,0,1,1-.31.28.3.3,0,0,1,.31-.28m0-1.14a.28.28,0,1,1-.31.28.29.29,0,0,1,.31-.28m0-1.15a.29.29,0,1,1-.31.29.3.3,0,0,1,.31-.29m0-1.14a.3.3,0,0,1,.31.28.31.31,0,0,1-.62,0,.3.3,0,0,1,.31-.28m0-1.14a.29.29,0,0,1,.31.28.31.31,0,0,1-.62,0,.29.29,0,0,1,.31-.28m0-1.15a.29.29,0,1,1-.31.28.3.3,0,0,1,.31-.28m0-1.14a.29.29,0,0,1,.31.28.3.3,0,0,1-.31.28.29.29,0,0,1-.31-.28.29.29,0,0,1,.31-.28m0-1.15a.29.29,0,1,1-.31.28.3.3,0,0,1,.31-.28" />
                <path class="cls-4"
                    d="M826.5,387.64a.3.3,0,0,1,.31.28.31.31,0,0,1-.62,0,.3.3,0,0,1,.31-.28m0,1.14a.29.29,0,1,1,0,.57.29.29,0,1,1,0-.57m0-2.29a.29.29,0,1,1-.31.29.3.3,0,0,1,.31-.29m0-1.14a.3.3,0,0,1,.31.28.31.31,0,0,1-.62,0,.3.3,0,0,1,.31-.28m0-1.14a.29.29,0,0,1,.31.28.31.31,0,0,1-.62,0,.29.29,0,0,1,.31-.28m0-1.15a.29.29,0,1,1-.31.28.3.3,0,0,1,.31-.28m0-1.14a.28.28,0,1,1-.31.28.29.29,0,0,1,.31-.28m0-1.15a.29.29,0,1,1-.31.29.29.29,0,0,1,.31-.29m0-1.14a.28.28,0,1,1-.31.28.29.29,0,0,1,.31-.28m0-1.15a.29.29,0,1,1-.31.29.3.3,0,0,1,.31-.29m0-1.14a.3.3,0,0,1,.31.28.31.31,0,0,1-.62,0,.3.3,0,0,1,.31-.28m0-1.14a.29.29,0,0,1,.31.28.31.31,0,0,1-.62,0,.29.29,0,0,1,.31-.28" />
            </g>
        </g>
        <g id="O2_Spa" data-name="O2 Spa">
            <path class="cls-604"
                d="M758.24,420.5s-14.39,28.93-18.79,58.83c-.17.35,0,21.49,0,21.49H669.12V458l33.4-60.06Z" /><text
                class="cls-9" transform="translate(693.36 464.39)">O2 Spa</text>
        </g>
        <g id="Vacant-2" data-name="Vacant">
            <path class="cls-601"
                d="M551.07,390.73l-54.72-.11S474,408.3,445.77,407.22c-.18.18.07,158.26.07,158.26H590l-.07-63.6H551Z" />
            <text class="cls-9" transform="translate(477.54 464.39)">
                <tspan class="cls-14">V</tspan>
                <tspan x="5.27" y="0">a</tspan>
                <tspan class="cls-15" x="10.12" y="0">c</tspan>
                <tspan class="cls-16" x="14.37" y="0">a</tspan>
                <tspan class="cls-17" x="19.22" y="0">n</tspan>
                <tspan x="24.32" y="0">t</tspan>
            </text>
        </g>
        <g id="Plaza_Premium_Lounge" data-name="Plaza Premium Lounge">
            <path class="cls-603"
                d="M445.77,564.93V407.15s-27.83-1-48.81-17.93H361.48c-6.58,17.63-25.29,21.13-25.29,21.13-27.16,1.53-35-19.8-35-19.8H212.31V562.81l12.66,0Z" />
            <text class="cls-9" transform="translate(270.1 464.39)">Plaza Premium Lounge
            </text>
        </g>
        <g id="Air_India_Lounge" data-name="Air India Lounge">
            <path class="cls-603"
                d="M212.44,115.14l.13,275,88.66.31s-10.18-20.86,11.25-41.24l-.77-42.36s-44.32-39.22-1.93-96.73l-.35-95Z" />
            <text class="cls-9" transform="translate(219.21 260.98)">Air India Lounge
            </text>
        </g>
    </g>
    <g id="Uitilities">
        <g id="Escalators">
            <rect class="cls-25" x="955.95" y="141.5" width="87.09" height="8.13" />
            <line class="cls-26" x1="1039.74" y1="141.5" x2="1039.74" y2="149.63" />
            <line class="cls-26" x1="1039.74" y1="141.5" x2="1039.74" y2="149.63" />
            <line class="cls-26" x1="1036.25" y1="141.5" x2="1036.25" y2="149.63" />
            <line class="cls-26" x1="1032.75" y1="141.5" x2="1032.75" y2="149.63" />
            <line class="cls-26" x1="1029.26" y1="141.5" x2="1029.26" y2="149.63" />
            <line class="cls-26" x1="1025.77" y1="141.5" x2="1025.77" y2="149.63" />
            <line class="cls-26" x1="1022.28" y1="141.5" x2="1022.28" y2="149.63" />
            <line class="cls-26" x1="1018.79" y1="141.5" x2="1018.79" y2="149.63" />
            <line class="cls-26" x1="1015.3" y1="141.5" x2="1015.3" y2="149.63" />
            <line class="cls-26" x1="1011.81" y1="141.5" x2="1011.81" y2="149.63" />
            <line class="cls-26" x1="1008.32" y1="141.5" x2="1008.32" y2="149.63" />
            <line class="cls-26" x1="1004.83" y1="141.5" x2="1004.83" y2="149.63" />
            <line class="cls-26" x1="1001.34" y1="141.5" x2="1001.34" y2="149.63" />
            <line class="cls-26" x1="997.84" y1="141.5" x2="997.84" y2="149.63" />
            <line class="cls-26" x1="994.35" y1="141.5" x2="994.35" y2="149.63" />
            <line class="cls-26" x1="990.86" y1="141.5" x2="990.86" y2="149.63" />
            <line class="cls-26" x1="987.37" y1="141.5" x2="987.37" y2="149.63" />
            <line class="cls-26" x1="983.88" y1="141.5" x2="983.88" y2="149.63" />
            <line class="cls-26" x1="980.39" y1="141.5" x2="980.39" y2="149.63" />
            <line class="cls-26" x1="976.89" y1="141.5" x2="976.89" y2="149.63" />
            <line class="cls-26" x1="973.41" y1="141.5" x2="973.41" y2="149.63" />
            <line class="cls-26" x1="969.91" y1="141.5" x2="969.91" y2="149.63" />
            <line class="cls-26" x1="966.42" y1="141.5" x2="966.42" y2="149.63" />
            <line class="cls-26" x1="962.93" y1="141.5" x2="962.93" y2="149.63" />
            <line class="cls-26" x1="959.44" y1="141.5" x2="959.44" y2="149.63" />
            <line class="cls-26" x1="955.95" y1="141.5" x2="955.95" y2="149.63" />
            <line class="cls-27" x1="1043.04" y1="149.63" x2="946.34" y2="149.63" />
            <line class="cls-27" x1="1043.04" y1="141.5" x2="946.34" y2="141.5" />
            <rect class="cls-25" x="955.95" y="152.74" width="87.09" height="8.13" />
            <line class="cls-26" x1="1039.74" y1="152.74" x2="1039.74" y2="160.87" />
            <line class="cls-26" x1="1039.74" y1="152.74" x2="1039.74" y2="160.87" />
            <line class="cls-26" x1="1036.25" y1="152.74" x2="1036.25" y2="160.87" />
            <line class="cls-26" x1="1032.75" y1="152.74" x2="1032.75" y2="160.87" />
            <line class="cls-26" x1="1029.26" y1="152.74" x2="1029.26" y2="160.87" />
            <line class="cls-26" x1="1025.77" y1="152.74" x2="1025.77" y2="160.87" />
            <line class="cls-26" x1="1022.28" y1="152.74" x2="1022.28" y2="160.87" />
            <line class="cls-26" x1="1018.79" y1="152.74" x2="1018.79" y2="160.87" />
            <line class="cls-26" x1="1015.3" y1="152.74" x2="1015.3" y2="160.87" />
            <line class="cls-26" x1="1011.81" y1="152.74" x2="1011.81" y2="160.87" />
            <line class="cls-26" x1="1008.32" y1="152.74" x2="1008.32" y2="160.87" />
            <line class="cls-26" x1="1004.83" y1="152.74" x2="1004.83" y2="160.87" />
            <line class="cls-26" x1="1001.34" y1="152.74" x2="1001.34" y2="160.87" />
            <line class="cls-26" x1="997.84" y1="152.74" x2="997.84" y2="160.87" />
            <line class="cls-26" x1="994.35" y1="152.74" x2="994.35" y2="160.87" />
            <line class="cls-26" x1="990.86" y1="152.74" x2="990.86" y2="160.87" />
            <line class="cls-26" x1="987.37" y1="152.74" x2="987.37" y2="160.87" />
            <line class="cls-26" x1="983.88" y1="152.74" x2="983.88" y2="160.87" />
            <line class="cls-26" x1="980.39" y1="152.74" x2="980.39" y2="160.87" />
            <line class="cls-26" x1="976.89" y1="152.74" x2="976.89" y2="160.87" />
            <line class="cls-26" x1="973.41" y1="152.74" x2="973.41" y2="160.87" />
            <line class="cls-26" x1="969.91" y1="152.74" x2="969.91" y2="160.87" />
            <line class="cls-26" x1="966.42" y1="152.74" x2="966.42" y2="160.87" />
            <line class="cls-26" x1="962.93" y1="152.74" x2="962.93" y2="160.87" />
            <line class="cls-26" x1="959.44" y1="152.74" x2="959.44" y2="160.87" />
            <line class="cls-26" x1="955.95" y1="152.74" x2="955.95" y2="160.87" />
            <line class="cls-27" x1="1043.04" y1="160.87" x2="946.34" y2="160.87" />
            <line class="cls-27" x1="1043.04" y1="152.74" x2="946.34" y2="152.74" />
            <g id="Escalator_D" data-name="Escalator D">
                <rect class="cls-28" x="946.87" y="138.8" width="23.72" height="23.72" rx="2.37" />
                <path class="cls-4"
                    d="M951.7,154l2.89,2.3-2.54.29.65.51a1.3,1.3,0,0,0,1,.21l1.65-.18.89-.1h0l-.28-2.55a1.38,1.38,0,0,0-.43-.91l-.64-.52.18,1.59h0l.1.95-2.89-2.3h0l-.56.71Z" />
                <path class="cls-4"
                    d="M961.61,144.37a1.3,1.3,0,1,0-1.29,1.29,1.29,1.29,0,0,0,1.29-1.29Zm-6.17,2,7.7,7.33a1.75,1.75,0,0,0,1.53.58l1.47,0a1.35,1.35,0,1,1,0,2.7h-2.32a2.24,2.24,0,0,1-1.68-.75l-7.4-7.17a2.82,2.82,0,0,0-1.94-.77h-1.36a1.36,1.36,0,0,1,0-2.71h2.32a2.25,2.25,0,0,1,1.68.76Zm6.17,4.1,1.92,2a1.57,1.57,0,0,0,1.37.67l1.24,0a2.53,2.53,0,0,1,0,5.05h-2.56a2.78,2.78,0,0,1-1.93-.78l-7.41-7.16a2.22,2.22,0,0,0-1.68-.76h-1.23a2.53,2.53,0,1,1,0-5H954a2.78,2.78,0,0,1,1.94.78l3.08,2.86v-.94a1.3,1.3,0,0,1,2.59,0Z" />
            </g>
        </g>
        <g id="Escalators-2" data-name="Escalators">
            <rect class="cls-25" x="343.49" y="120.29" width="87.09" height="8.13" />
            <line class="cls-26" x1="346.79" y1="120.29" x2="346.79" y2="128.42" />
            <line class="cls-26" x1="346.79" y1="120.29" x2="346.79" y2="128.42" />
            <line class="cls-26" x1="350.28" y1="120.29" x2="350.28" y2="128.42" />
            <line class="cls-26" x1="353.78" y1="120.29" x2="353.78" y2="128.42" />
            <line class="cls-26" x1="357.27" y1="120.29" x2="357.27" y2="128.42" />
            <line class="cls-26" x1="360.76" y1="120.29" x2="360.76" y2="128.42" />
            <line class="cls-26" x1="364.25" y1="120.29" x2="364.25" y2="128.42" />
            <line class="cls-26" x1="367.74" y1="120.29" x2="367.74" y2="128.42" />
            <line class="cls-26" x1="371.23" y1="120.29" x2="371.23" y2="128.42" />
            <line class="cls-26" x1="374.72" y1="120.29" x2="374.72" y2="128.42" />
            <line class="cls-26" x1="378.22" y1="120.29" x2="378.22" y2="128.42" />
            <line class="cls-26" x1="381.71" y1="120.29" x2="381.71" y2="128.42" />
            <line class="cls-26" x1="385.2" y1="120.29" x2="385.2" y2="128.42" />
            <line class="cls-26" x1="388.69" y1="120.29" x2="388.69" y2="128.42" />
            <line class="cls-26" x1="392.18" y1="120.29" x2="392.18" y2="128.42" />
            <line class="cls-26" x1="395.67" y1="120.29" x2="395.67" y2="128.42" />
            <line class="cls-26" x1="399.16" y1="120.29" x2="399.16" y2="128.42" />
            <line class="cls-26" x1="402.65" y1="120.29" x2="402.65" y2="128.42" />
            <line class="cls-26" x1="406.15" y1="120.29" x2="406.15" y2="128.42" />
            <line class="cls-26" x1="409.64" y1="120.29" x2="409.64" y2="128.42" />
            <line class="cls-26" x1="413.13" y1="120.29" x2="413.13" y2="128.42" />
            <line class="cls-26" x1="416.62" y1="120.29" x2="416.62" y2="128.42" />
            <line class="cls-26" x1="420.11" y1="120.29" x2="420.11" y2="128.42" />
            <line class="cls-26" x1="423.6" y1="120.29" x2="423.6" y2="128.42" />
            <line class="cls-26" x1="427.09" y1="120.29" x2="427.09" y2="128.42" />
            <line class="cls-26" x1="430.58" y1="120.29" x2="430.58" y2="128.42" />
            <line class="cls-27" x1="343.49" y1="128.42" x2="440.19" y2="128.42" />
            <line class="cls-27" x1="343.49" y1="120.29" x2="440.19" y2="120.29" />
            <rect class="cls-25" x="343.49" y="131.53" width="87.09" height="8.13" />
            <line class="cls-26" x1="346.79" y1="131.53" x2="346.79" y2="139.65" />
            <line class="cls-26" x1="346.79" y1="131.53" x2="346.79" y2="139.65" />
            <line class="cls-26" x1="350.28" y1="131.53" x2="350.28" y2="139.65" />
            <line class="cls-26" x1="353.78" y1="131.53" x2="353.78" y2="139.65" />
            <line class="cls-26" x1="357.27" y1="131.53" x2="357.27" y2="139.65" />
            <line class="cls-26" x1="360.76" y1="131.53" x2="360.76" y2="139.65" />
            <line class="cls-26" x1="364.25" y1="131.53" x2="364.25" y2="139.65" />
            <line class="cls-26" x1="367.74" y1="131.53" x2="367.74" y2="139.65" />
            <line class="cls-26" x1="371.23" y1="131.53" x2="371.23" y2="139.65" />
            <line class="cls-26" x1="374.72" y1="131.53" x2="374.72" y2="139.65" />
            <line class="cls-26" x1="378.22" y1="131.53" x2="378.22" y2="139.65" />
            <line class="cls-26" x1="381.71" y1="131.53" x2="381.71" y2="139.65" />
            <line class="cls-26" x1="385.2" y1="131.53" x2="385.2" y2="139.65" />
            <line class="cls-26" x1="388.69" y1="131.53" x2="388.69" y2="139.65" />
            <line class="cls-26" x1="392.18" y1="131.53" x2="392.18" y2="139.65" />
            <line class="cls-26" x1="395.67" y1="131.53" x2="395.67" y2="139.65" />
            <line class="cls-26" x1="399.16" y1="131.53" x2="399.16" y2="139.65" />
            <line class="cls-26" x1="402.65" y1="131.53" x2="402.65" y2="139.65" />
            <line class="cls-26" x1="406.15" y1="131.53" x2="406.15" y2="139.65" />
            <line class="cls-26" x1="409.64" y1="131.53" x2="409.64" y2="139.65" />
            <line class="cls-26" x1="413.13" y1="131.53" x2="413.13" y2="139.65" />
            <line class="cls-26" x1="416.62" y1="131.53" x2="416.62" y2="139.65" />
            <line class="cls-26" x1="420.11" y1="131.53" x2="420.11" y2="139.65" />
            <line class="cls-26" x1="423.6" y1="131.53" x2="423.6" y2="139.65" />
            <line class="cls-26" x1="427.09" y1="131.53" x2="427.09" y2="139.65" />
            <line class="cls-26" x1="430.58" y1="131.53" x2="430.58" y2="139.65" />
            <line class="cls-27" x1="343.49" y1="139.65" x2="440.19" y2="139.65" />
            <line class="cls-27" x1="343.49" y1="131.53" x2="440.19" y2="131.53" />
            <g id="Escalator_D-2" data-name="Escalator D">
                <rect class="cls-28" x="347.35" y="118.07" width="23.72" height="23.72" rx="2.37" />
                <path class="cls-4"
                    d="M352.33,133.07l2.61,2.61h-2.55l.58.59a1.4,1.4,0,0,0,1,.32h2.56V134a1.4,1.4,0,0,0-.32-1l-.59-.58v1.6h0v1L353,132.43h0l-.64.64Z" />
                <path class="cls-4"
                    d="M362.09,123.65a1.29,1.29,0,1,0-1.29,1.29,1.28,1.28,0,0,0,1.29-1.29Zm-6.17,2,7.7,7.32a1.75,1.75,0,0,0,1.53.59l1.47,0a1.35,1.35,0,0,1,0,2.7H364.3a2.22,2.22,0,0,1-1.67-.75l-7.41-7.17a2.81,2.81,0,0,0-1.94-.78h-1.35a1.35,1.35,0,0,1,0-2.7h2.32a2.21,2.21,0,0,1,1.67.76Zm6.17,4.1,1.92,2a1.59,1.59,0,0,0,1.38.67l1.23,0a2.53,2.53,0,0,1,0,5.06h-2.55a2.79,2.79,0,0,1-1.94-.78l-7.41-7.16a2.21,2.21,0,0,0-1.67-.76h-1.24a2.53,2.53,0,1,1,0-5h2.67a2.8,2.8,0,0,1,1.94.77l3.09,2.87v-.94a1.29,1.29,0,1,1,2.58,0Z" />
            </g>
        </g>
        <g id="Elevators">
            <use width="17.51" height="17.51" transform="translate(918.31 116.92) scale(1.36)" xlink:href="#Elevator" />
        </g>
        <g id="Elevators-2" data-name="Elevators">
            <use width="17.51" height="17.51" transform="translate(354.46 142.52) scale(1.36)" xlink:href="#Elevator" />
        </g>
        <g id="Smoking_Room" data-name="Smoking Room">
            <use width="17.51" height="17.51" transform="translate(914.38 459.56) scale(1.35 1.35)"
                xlink:href="#Smoking-area" />
        </g>
        <g id="Restroom">
            <polygon class="cls-602" points="831.93 500.38 831.93 452.87 914.62 452.53 914.62 500.38 831.93 500.38" />
            <use width="33.7" height="17.51" transform="translate(850.44 458.61) scale(1.35)"
                xlink:href="#Toilets_M_V_Dis" />
        </g>
        <use width="17.51" height="17.51" transform="translate(808.2 476.65) scale(1.35)"
            xlink:href="#Drinking_fountain" />
        <g id="Sitting_Area" data-name="Sitting Area">
            <path id="Sitting_area-2 " data-name="Sitting area" class="cls-605 sitting"
                d="M883.8,418.12s65,12.93,118.58-1.85c.53,0,52.23-14.94,60.15-85.55.26.08,0-119.68,0-119.68s-2.14-20.84-24.15-21.63c-.12.53-54.46.17-54.46.17V366.26L883.8,368.21Z" />
            <g id="Icon">
                <rect class="cls-31" x="1013.64" y="283.48" width="23.72" height="23.72" rx="0.74"
                    transform="translate(2051 590.69) rotate(-180)" />
                <path
                    d="M1023.87,298.46h-2a1.81,1.81,0,0,0-1.79,1.11c-.46.95-.93,1.89-1.39,2.83l-.11.2a2.48,2.48,0,0,0-.3-.13.35.35,0,0,0-.45.17.33.33,0,0,0,.15.47l1.94.94c.2.09.37,0,.49-.26.39-.77.77-1.55,1.15-2.32.11-.22.22-.44.32-.67a.29.29,0,0,1,.32-.2l3.83,0a1.74,1.74,0,0,0,1.77-1.48,2,2,0,0,0,0-.25c0-2,0-4,0-5.94a2,2,0,0,0-3.74-.91,2.16,2.16,0,0,0-.25,1.09v5.33Z" />
                <path
                    d="M1028.72,300.3c.06.11.12.2.18.3l1.12,1.92c0,.06.07.12.11.17a.34.34,0,0,0,.48.13.34.34,0,0,0,.12-.5l-.91-1.58c-.16-.25-.3-.52-.46-.77a.18.18,0,0,1,0-.25,3.16,3.16,0,0,0,.76-2.16v-7.87a.92.92,0,0,0,0-.29.35.35,0,0,0-.67.05,1.23,1.23,0,0,0,0,.27v7.83a2.38,2.38,0,0,1-1.64,2.4,2.76,2.76,0,0,1-.86.13c-.83,0-1.66,0-2.5,0a1.15,1.15,0,0,0-1.16.72c-.23.51-.49,1-.73,1.51a.36.36,0,0,0,.16.52.36.36,0,0,0,.48-.2l.06-.12c.23-.47.47-.94.69-1.41a.45.45,0,0,1,.47-.3h2.12A3.59,3.59,0,0,0,1028.72,300.3Z" />
                <path d="M1025.78,290.79a2.09,2.09,0,1,0,0-4.18,2.09,2.09,0,1,0,0,4.18Z" />
            </g>
        </g>
    </g>
</svg>